<svg width="53" height="53" viewBox="0 0 53 53" fill="none" xmlns="http://www.w3.org/2000/svg">
<rect width="52.4892" height="52.4892" rx="10" fill="#EBDBFF"/>
<path d="M13.6081 25.2724C13.2176 25.6629 13.2176 26.2961 13.6081 26.6866L19.972 33.0506C20.3626 33.4411 20.9957 33.4411 21.3863 33.0506C21.7768 32.6601 21.7768 32.0269 21.3863 31.6364L15.7294 25.9795L21.3863 20.3227C21.7768 19.9321 21.7768 19.299 21.3863 18.9085C20.9957 18.5179 20.3626 18.5179 19.972 18.9085L13.6081 25.2724ZM38.1739 26.9795C38.7262 26.9795 39.1739 26.5318 39.1739 25.9795C39.1739 25.4272 38.7262 24.9795 38.1739 24.9795L38.1739 26.9795ZM14.3152 26.9795L38.1739 26.9795L38.1739 24.9795L14.3152 24.9795L14.3152 26.9795Z" fill="black"/>
</svg>
