<svg width="33" height="28" viewBox="0 0 33 28" fill="none" xmlns="http://www.w3.org/2000/svg">
<path d="M17.1135 1.4603C16.7526 1.1799 16.2474 1.1799 15.8865 1.4603L1.38651 12.7247C1.04906 12.9869 0.915472 13.4345 1.05403 13.8387C1.1926 14.2429 1.57269 14.5144 2 14.5144H4.89603V25.75C4.89603 26.3023 5.34374 26.75 5.89603 26.75H12.4732C13.0254 26.75 13.4732 26.3023 13.4732 25.75V21.5889C13.4732 19.265 14.9979 17.7186 16.5 17.7186C18.0021 17.7186 19.5268 19.265 19.5268 21.5889V25.75C19.5268 26.3023 19.9745 26.75 20.5268 26.75H27.104C27.6563 26.75 28.104 26.3023 28.104 25.75V14.5144H31C31.4273 14.5144 31.8074 14.2429 31.946 13.8387C32.0845 13.4345 31.9509 12.9869 31.6135 12.7247L17.1135 1.4603Z" fill="white" stroke="black" stroke-width="2" stroke-linejoin="round"/>
</svg>
