<svg width="26" height="32" viewBox="0 0 26 32" fill="none" xmlns="http://www.w3.org/2000/svg">
<mask id="path-1-outside-1_13_35" maskUnits="userSpaceOnUse" x="0" y="0" width="26" height="32" fill="black">
<rect fill="white" width="26" height="32"/>
<path fill-rule="evenodd" clip-rule="evenodd" d="M16.9958 14.7482C18.8116 13.4836 20 11.3806 20 9C20 5.13401 16.866 2 13 2C9.13401 2 6 5.13401 6 9C6 11.3806 7.18835 13.4836 9.00421 14.7482C4.90463 16.3473 2 20.3344 2 25V28C2 29.1046 2.89543 30 4 30H22C23.1046 30 24 29.1046 24 28V25C24 20.3344 21.0954 16.3473 16.9958 14.7482Z"/>
</mask>
<path fill-rule="evenodd" clip-rule="evenodd" d="M16.9958 14.7482C18.8116 13.4836 20 11.3806 20 9C20 5.13401 16.866 2 13 2C9.13401 2 6 5.13401 6 9C6 11.3806 7.18835 13.4836 9.00421 14.7482C4.90463 16.3473 2 20.3344 2 25V28C2 29.1046 2.89543 30 4 30H22C23.1046 30 24 29.1046 24 28V25C24 20.3344 21.0954 16.3473 16.9958 14.7482Z" fill="white"/>
<path d="M16.9958 14.7482L15.8528 13.107L12.7767 15.2493L16.269 16.6115L16.9958 14.7482ZM9.00421 14.7482L9.73098 16.6115L13.2233 15.2493L10.1472 13.107L9.00421 14.7482ZM18 9C18 10.6987 17.1547 12.2003 15.8528 13.107L18.1388 16.3894C20.4686 14.7669 22 12.0625 22 9H18ZM13 4C15.7614 4 18 6.23858 18 9H22C22 4.02944 17.9706 0 13 0V4ZM8 9C8 6.23858 10.2386 4 13 4V0C8.02944 0 4 4.02944 4 9H8ZM10.1472 13.107C8.84527 12.2003 8 10.6987 8 9H4C4 12.0625 5.53143 14.7669 7.86121 16.3894L10.1472 13.107ZM8.27743 12.885C3.4359 14.7734 0 19.483 0 25H4C4 21.1859 6.37336 17.9212 9.73098 16.6115L8.27743 12.885ZM0 25V28H4V25H0ZM0 28C0 30.2091 1.79086 32 4 32V28H0ZM4 32H22V28H4V32ZM22 32C24.2091 32 26 30.2091 26 28H22V32ZM26 28V25H22V28H26ZM26 25C26 19.483 22.5641 14.7734 17.7226 12.885L16.269 16.6115C19.6266 17.9212 22 21.1859 22 25H26Z" fill="black" mask="url(#path-1-outside-1_13_35)"/>
</svg>
