<svg width="29" height="35" viewBox="0 0 29 35" fill="none" xmlns="http://www.w3.org/2000/svg">
<circle cx="14.5786" cy="9.69996" r="7.3" fill="white" stroke="white" stroke-width="3"/>
<mask id="path-2-inside-1_13_18" fill="white">
<path fill-rule="evenodd" clip-rule="evenodd" d="M14.5786 17.3879C6.94126 17.3879 0.75 23.5792 0.75 31.2165C0.75 33.0023 2.19768 34.45 3.98348 34.45H25.1737C26.9595 34.45 28.4071 33.0023 28.4071 31.2165C28.4071 23.5792 22.2159 17.3879 14.5786 17.3879Z"/>
</mask>
<path fill-rule="evenodd" clip-rule="evenodd" d="M14.5786 17.3879C6.94126 17.3879 0.75 23.5792 0.75 31.2165C0.75 33.0023 2.19768 34.45 3.98348 34.45H25.1737C26.9595 34.45 28.4071 33.0023 28.4071 31.2165C28.4071 23.5792 22.2159 17.3879 14.5786 17.3879Z" fill="white"/>
<path d="M3.75 31.2165C3.75 25.236 8.59812 20.3879 14.5786 20.3879V14.3879C5.28441 14.3879 -2.25 21.9223 -2.25 31.2165H3.75ZM3.98348 37.45H25.1737V31.45H3.98348V37.45ZM14.5786 20.3879C20.559 20.3879 25.4071 25.236 25.4071 31.2165H31.4071C31.4071 21.9223 23.8727 14.3879 14.5786 14.3879V20.3879ZM25.1737 37.45C28.6163 37.45 31.4071 34.6591 31.4071 31.2165H25.4071C25.4071 31.3454 25.3026 31.45 25.1737 31.45V37.45ZM-2.25 31.2165C-2.25 34.6591 0.540824 37.45 3.98348 37.45V31.45C3.85453 31.45 3.75 31.3454 3.75 31.2165H-2.25Z" fill="white" mask="url(#path-2-inside-1_13_18)"/>
</svg>
