<svg width="55" height="55" viewBox="0 0 55 55" fill="none" xmlns="http://www.w3.org/2000/svg">
<rect width="55" height="55" rx="10" fill="#D4B1FF"/>
<circle cx="27.5786" cy="18.7" r="7.3" fill="white" stroke="white" stroke-width="3"/>
<mask id="path-3-inside-1_13_294" fill="white">
<path fill-rule="evenodd" clip-rule="evenodd" d="M27.5786 26.3879C19.9413 26.3879 13.75 32.5792 13.75 40.2165C13.75 42.0023 15.1977 43.45 16.9835 43.45H38.1737C39.9595 43.45 41.4071 42.0023 41.4071 40.2165C41.4071 32.5792 35.2159 26.3879 27.5786 26.3879Z"/>
</mask>
<path fill-rule="evenodd" clip-rule="evenodd" d="M27.5786 26.3879C19.9413 26.3879 13.75 32.5792 13.75 40.2165C13.75 42.0023 15.1977 43.45 16.9835 43.45H38.1737C39.9595 43.45 41.4071 42.0023 41.4071 40.2165C41.4071 32.5792 35.2159 26.3879 27.5786 26.3879Z" fill="white"/>
<path d="M16.75 40.2165C16.75 34.236 21.5981 29.3879 27.5786 29.3879V23.3879C18.2844 23.3879 10.75 30.9223 10.75 40.2165H16.75ZM16.9835 46.45H38.1737V40.45H16.9835V46.45ZM27.5786 29.3879C33.559 29.3879 38.4071 34.236 38.4071 40.2165H44.4071C44.4071 30.9223 36.8727 23.3879 27.5786 23.3879V29.3879ZM38.1737 46.45C41.6163 46.45 44.4071 43.6591 44.4071 40.2165H38.4071C38.4071 40.3454 38.3026 40.45 38.1737 40.45V46.45ZM10.75 40.2165C10.75 43.6591 13.5408 46.45 16.9835 46.45V40.45C16.8545 40.45 16.75 40.3454 16.75 40.2165H10.75Z" fill="white" mask="url(#path-3-inside-1_13_294)"/>
</svg>
